<mxfile host="app.diagrams.net" modified="2023-12-17T16:54:53.468Z" agent="Mozilla/5.0 (Windows NT 10.0; Win64; x64; rv:106.0) Gecko/20100101 Firefox/106.0" etag="icTljjN1BOdnLVV1F069" version="22.1.11" type="github">
  <diagram name="第 1 页" id="MFauHbtZWHXYKyqWUlYu">
    <mxGraphModel dx="1050" dy="581" grid="1" gridSize="10" guides="1" tooltips="1" connect="1" arrows="1" fold="1" page="1" pageScale="1" pageWidth="827" pageHeight="1169" math="0" shadow="0">
      <root>
        <mxCell id="0" />
        <mxCell id="1" parent="0" />
        <mxCell id="ScWMANjDX7f4JJHc8fpB-13" style="edgeStyle=orthogonalEdgeStyle;rounded=0;orthogonalLoop=1;jettySize=auto;html=1;exitX=0.5;exitY=1;exitDx=0;exitDy=0;entryX=0.5;entryY=0;entryDx=0;entryDy=0;startArrow=classicThin;startFill=1;dashed=1;" edge="1" parent="1" source="ScWMANjDX7f4JJHc8fpB-3" target="ScWMANjDX7f4JJHc8fpB-5">
          <mxGeometry relative="1" as="geometry" />
        </mxCell>
        <mxCell id="ScWMANjDX7f4JJHc8fpB-18" style="edgeStyle=orthogonalEdgeStyle;rounded=0;orthogonalLoop=1;jettySize=auto;html=1;exitX=1;exitY=0.5;exitDx=0;exitDy=0;entryX=0;entryY=0.5;entryDx=0;entryDy=0;" edge="1" parent="1" source="ScWMANjDX7f4JJHc8fpB-3" target="ScWMANjDX7f4JJHc8fpB-16">
          <mxGeometry relative="1" as="geometry" />
        </mxCell>
        <mxCell id="ScWMANjDX7f4JJHc8fpB-3" value="运算器" style="rounded=0;whiteSpace=wrap;html=1;" vertex="1" parent="1">
          <mxGeometry x="379" y="208" width="70" height="30" as="geometry" />
        </mxCell>
        <mxCell id="ScWMANjDX7f4JJHc8fpB-6" style="rounded=0;orthogonalLoop=1;jettySize=auto;html=1;exitX=0.5;exitY=1;exitDx=0;exitDy=0;entryX=0.5;entryY=0;entryDx=0;entryDy=0;endArrow=classicThin;endFill=1;startArrow=classicThin;startFill=1;" edge="1" parent="1" source="ScWMANjDX7f4JJHc8fpB-4" target="ScWMANjDX7f4JJHc8fpB-3">
          <mxGeometry relative="1" as="geometry" />
        </mxCell>
        <mxCell id="ScWMANjDX7f4JJHc8fpB-14" style="edgeStyle=orthogonalEdgeStyle;rounded=0;orthogonalLoop=1;jettySize=auto;html=1;exitX=1;exitY=0.5;exitDx=0;exitDy=0;entryX=1;entryY=0.25;entryDx=0;entryDy=0;" edge="1" parent="1" source="ScWMANjDX7f4JJHc8fpB-4" target="ScWMANjDX7f4JJHc8fpB-5">
          <mxGeometry relative="1" as="geometry" />
        </mxCell>
        <mxCell id="ScWMANjDX7f4JJHc8fpB-19" style="edgeStyle=orthogonalEdgeStyle;rounded=0;orthogonalLoop=1;jettySize=auto;html=1;exitX=0;exitY=0.5;exitDx=0;exitDy=0;entryX=0;entryY=0.25;entryDx=0;entryDy=0;dashed=1;startArrow=classicThin;startFill=1;" edge="1" parent="1" source="ScWMANjDX7f4JJHc8fpB-4" target="ScWMANjDX7f4JJHc8fpB-5">
          <mxGeometry relative="1" as="geometry">
            <Array as="points">
              <mxPoint x="350" y="135" />
              <mxPoint x="350" y="298" />
            </Array>
          </mxGeometry>
        </mxCell>
        <mxCell id="ScWMANjDX7f4JJHc8fpB-4" value="存储器" style="rounded=0;whiteSpace=wrap;html=1;" vertex="1" parent="1">
          <mxGeometry x="379" y="120" width="70" height="30" as="geometry" />
        </mxCell>
        <mxCell id="ScWMANjDX7f4JJHc8fpB-5" value="控制器" style="rounded=0;whiteSpace=wrap;html=1;" vertex="1" parent="1">
          <mxGeometry x="379" y="290" width="70" height="30" as="geometry" />
        </mxCell>
        <mxCell id="ScWMANjDX7f4JJHc8fpB-8" value="" style="endArrow=classicThin;html=1;rounded=0;endFill=1;" edge="1" parent="1">
          <mxGeometry width="50" height="50" relative="1" as="geometry">
            <mxPoint x="490" y="24.5" as="sourcePoint" />
            <mxPoint x="570" y="24.5" as="targetPoint" />
          </mxGeometry>
        </mxCell>
        <mxCell id="ScWMANjDX7f4JJHc8fpB-9" value="数据线" style="text;html=1;strokeColor=none;fillColor=none;align=center;verticalAlign=middle;whiteSpace=wrap;rounded=0;" vertex="1" parent="1">
          <mxGeometry x="570" y="10" width="60" height="30" as="geometry" />
        </mxCell>
        <mxCell id="ScWMANjDX7f4JJHc8fpB-11" value="" style="endArrow=classicThin;html=1;rounded=0;endFill=1;dashed=1;" edge="1" parent="1">
          <mxGeometry width="50" height="50" relative="1" as="geometry">
            <mxPoint x="490" y="64.5" as="sourcePoint" />
            <mxPoint x="570" y="64.5" as="targetPoint" />
          </mxGeometry>
        </mxCell>
        <mxCell id="ScWMANjDX7f4JJHc8fpB-12" value="控制线和反馈线" style="text;html=1;strokeColor=none;fillColor=none;align=center;verticalAlign=middle;whiteSpace=wrap;rounded=0;" vertex="1" parent="1">
          <mxGeometry x="570" y="50" width="110" height="30" as="geometry" />
        </mxCell>
        <mxCell id="ScWMANjDX7f4JJHc8fpB-17" style="edgeStyle=orthogonalEdgeStyle;rounded=0;orthogonalLoop=1;jettySize=auto;html=1;exitX=1;exitY=0.5;exitDx=0;exitDy=0;entryX=0;entryY=0.5;entryDx=0;entryDy=0;" edge="1" parent="1" source="ScWMANjDX7f4JJHc8fpB-15" target="ScWMANjDX7f4JJHc8fpB-3">
          <mxGeometry relative="1" as="geometry" />
        </mxCell>
        <mxCell id="ScWMANjDX7f4JJHc8fpB-21" style="edgeStyle=orthogonalEdgeStyle;rounded=0;orthogonalLoop=1;jettySize=auto;html=1;exitX=0.5;exitY=1;exitDx=0;exitDy=0;entryX=0;entryY=0.75;entryDx=0;entryDy=0;" edge="1" parent="1" source="ScWMANjDX7f4JJHc8fpB-15" target="ScWMANjDX7f4JJHc8fpB-5">
          <mxGeometry relative="1" as="geometry" />
        </mxCell>
        <mxCell id="ScWMANjDX7f4JJHc8fpB-15" value="输入设备" style="rounded=0;whiteSpace=wrap;html=1;" vertex="1" parent="1">
          <mxGeometry x="240" y="208" width="70" height="30" as="geometry" />
        </mxCell>
        <mxCell id="ScWMANjDX7f4JJHc8fpB-20" style="edgeStyle=orthogonalEdgeStyle;rounded=0;orthogonalLoop=1;jettySize=auto;html=1;exitX=0.5;exitY=1;exitDx=0;exitDy=0;entryX=1;entryY=0.75;entryDx=0;entryDy=0;startArrow=classicThin;startFill=1;dashed=1;" edge="1" parent="1" source="ScWMANjDX7f4JJHc8fpB-16" target="ScWMANjDX7f4JJHc8fpB-5">
          <mxGeometry relative="1" as="geometry" />
        </mxCell>
        <mxCell id="ScWMANjDX7f4JJHc8fpB-16" value="输出设备" style="rounded=0;whiteSpace=wrap;html=1;" vertex="1" parent="1">
          <mxGeometry x="520" y="208" width="70" height="30" as="geometry" />
        </mxCell>
      </root>
    </mxGraphModel>
  </diagram>
</mxfile>
